<svg width="397" height="141" viewBox="0 0 397 141" fill="none" xmlns="http://www.w3.org/2000/svg">
<path d="M150.035 91.05C136.315 91.05 126.655 80.97 126.655 65.36C126.655 50.52 136.035 39.95 151.225 39.95C163.965 39.95 172.715 47.51 174.815 59.9H166.205C164.665 52.2 158.995 47.51 151.225 47.51C141.425 47.51 135.265 54.37 135.265 65.36C135.265 76.49 141.495 83.42 150.875 83.42C158.505 83.42 163.475 78.45 163.475 71.45H148.705V64.38H165.435C171.735 64.38 175.165 67.53 175.165 73.48V90H167.745V75.02H167.605C166.625 84.82 160.185 91.05 150.035 91.05ZM191.411 90H183.151V52.9H189.801L190.781 60.18C193.161 55.14 197.501 52.48 203.661 52.48H205.061V60.53H203.661C195.961 60.53 191.411 64.66 191.411 71.66V90ZM217.677 104H210.957V97H217.677C220.757 97 222.437 95.88 223.137 93.92L224.607 90H223.067L208.367 52.9H217.257L227.897 81.04L238.327 52.9H246.937L230.767 96.37C228.877 101.34 224.957 104 217.677 104ZM264.447 90H256.187V59.9H249.677V52.9H256.187V48.28C256.187 41.28 260.317 37.5 268.017 37.5H276.067V44.5H268.577C265.917 44.5 264.447 46.04 264.447 48.84V52.9H279.777V40.23H288.107V52.9H297.627V59.9H288.107V78.1C288.107 81.25 289.717 83 292.727 83H296.927V90H292.167C284.117 90 279.777 86.01 279.777 78.66V59.9H264.447V90ZM319.997 91.05C307.957 91.05 300.957 82.58 300.957 71.1C300.957 58.99 309.147 51.78 319.997 51.78C331.967 51.78 338.967 60.18 338.967 71.1C338.967 83.63 331.057 91.05 319.997 91.05ZM319.997 83.98C326.647 83.98 330.567 78.52 330.567 71.1C330.567 63.75 326.437 58.85 319.997 58.85C313.557 58.85 309.357 63.75 309.357 71.1C309.357 79.22 313.907 83.98 319.997 83.98Z" fill="#292929"/>
<path fill-rule="evenodd" clip-rule="evenodd" d="M40.8562 39C40.0391 39 39.3709 39.6635 39.4315 40.4785C39.5981 42.7123 40.1415 44.9094 41.0435 46.9843C42.1441 49.5158 43.7573 51.8159 45.7908 53.7531C47.8245 55.6907 50.2385 57.2275 52.8955 58.276C55.0961 59.1443 57.4276 59.6637 59.7975 59.8164C60.6131 59.8691 61.2763 59.2017 61.2763 58.3843V40.4797C61.2763 39.6626 60.6137 39 59.7966 39H40.8562ZM96.5402 59.1653C97.5266 58.5702 98.7843 59.2805 98.7843 60.4323V100.52C98.7843 101.337 98.122 102 97.3046 102H83.8897C83.0726 102 82.41 101.337 82.41 100.52V68.5255C82.41 68.007 82.6814 67.5264 83.1256 67.2585L96.5402 59.1653ZM38.3629 93.3247C37.3768 93.9175 36.1211 93.2069 36.1211 92.0563V76.4062C36.1211 75.8868 36.3934 75.4053 36.8388 75.1377L96.4996 39.29C97.4857 38.6975 98.7414 39.4078 98.7414 40.5584V56.2086C98.7414 56.7279 98.4691 57.2094 98.0237 57.477L38.3629 93.3247Z" fill="url(#paint0_linear_479_2722)"/>
<defs>
<linearGradient id="paint0_linear_479_2722" x1="98.8613" y1="39" x2="36.1211" y2="101.888" gradientUnits="userSpaceOnUse">
<stop stop-color="#FFD600"/>
<stop offset="0.265" stop-color="#FE660A"/>
<stop offset="0.469" stop-color="#E265FF"/>
<stop offset="0.719" stop-color="#FF336A"/>
<stop offset="1" stop-color="#0052FF"/>
</linearGradient>
</defs>
</svg>
