<svg width="1786" height="714" viewBox="0 0 1786 714" fill="none" xmlns="http://www.w3.org/2000/svg">
<path d="M632.74 473C554.34 473 499.14 415.4 499.14 326.2C499.14 241.4 552.74 181 639.54 181C712.34 181 762.34 224.2 774.34 295H725.14C716.34 251 683.94 224.2 639.54 224.2C583.54 224.2 548.34 263.4 548.34 326.2C548.34 389.8 583.94 429.4 637.54 429.4C681.14 429.4 709.54 401 709.54 361H625.14V320.6H720.74C756.74 320.6 776.34 338.6 776.34 372.6V467H733.94V381.4H733.14C727.54 437.4 690.74 473 632.74 473ZM841.175 467H793.975V255H831.975L837.575 296.6C851.175 267.8 875.975 252.6 911.175 252.6H919.175V298.6H911.175C867.175 298.6 841.175 322.2 841.175 362.2V467ZM963.265 547H924.865V507H963.265C980.865 507 990.465 500.6 994.465 489.4L1002.87 467H994.065L910.065 255H960.865L1021.67 415.8L1081.27 255H1130.47L1038.07 503.4C1027.27 531.8 1004.87 547 963.265 547ZM1202.52 467H1155.32V295H1118.12V255H1155.32V228.6C1155.32 188.6 1178.92 167 1222.92 167H1268.92V207H1226.12C1210.92 207 1202.52 215.8 1202.52 231.8V255H1290.12V182.6H1337.72V255H1392.12V295H1337.72V399C1337.72 417 1346.92 427 1364.12 427H1388.12V467H1360.92C1314.92 467 1290.12 444.2 1290.12 402.2V295H1202.52V467ZM1491.95 473C1423.15 473 1383.15 424.6 1383.15 359C1383.15 289.8 1429.95 248.6 1491.95 248.6C1560.35 248.6 1600.35 296.6 1600.35 359C1600.35 430.6 1555.15 473 1491.95 473ZM1491.95 432.6C1529.95 432.6 1552.35 401.4 1552.35 359C1552.35 317 1528.75 289 1491.95 289C1455.15 289 1431.15 317 1431.15 359C1431.15 405.4 1457.15 432.6 1491.95 432.6Z" fill="#292929"/>
<path fill-rule="evenodd" clip-rule="evenodd" d="M376.165 323.219C379.498 321.217 383.74 323.617 383.74 327.505V462.378C383.74 465.139 381.502 467.378 378.74 467.378H333.411C330.65 467.378 328.411 465.139 328.411 462.378V354.742C328.411 352.986 329.332 351.36 330.836 350.456L376.165 323.219ZM328.704 221.619C328.575 221.696 328.411 221.603 328.411 221.453C328.411 221.346 328.498 221.26 328.605 221.26C328.8 221.26 328.872 221.518 328.704 221.619ZM188 254.5C185.239 254.5 182.981 256.742 183.186 259.495C183.749 267.044 185.585 274.468 188.633 281.479C192.352 290.033 197.803 297.804 204.674 304.351C211.546 310.898 219.703 316.091 228.681 319.634C236.117 322.568 243.995 324.323 252.003 324.839C254.759 325.017 257 322.761 257 320V259.5C257 256.739 254.761 254.5 252 254.5H188ZM179.575 438.064C176.243 440.066 172 437.666 172 433.778V380.896C172 379.141 172.92 377.514 174.425 376.61L376.02 255.48C379.352 253.477 383.595 255.878 383.595 259.766V312.648C383.595 314.403 382.675 316.03 381.17 316.934L179.575 438.064Z" fill="url(#paint0_linear_0_666)"/>
<defs>
<linearGradient id="paint0_linear_0_666" x1="384" y1="254.5" x2="172" y2="467" gradientUnits="userSpaceOnUse">
<stop stop-color="#FFD600"/>
<stop offset="0.265" stop-color="#FE660A"/>
<stop offset="0.469" stop-color="#E265FF"/>
<stop offset="0.719" stop-color="#FF336A"/>
<stop offset="1" stop-color="#0052FF"/>
</linearGradient>
</defs>
</svg>
