<svg xmlns="http://www.w3.org/2000/svg" xmlns:xlink="http://www.w3.org/1999/xlink" width="1080" zoomAndPan="magnify" viewBox="0 0 810 809.999993" height="1080" preserveAspectRatio="xMidYMid meet" version="1.0"><path fill="#000000" d="M 288.636719 343.84375 L 220.25 329.464844 C 211.164062 327.699219 204.101562 320.378906 202.082031 311.296875 L 188.453125 242.671875 C 183.40625 217.945312 148.078125 217.945312 143.03125 242.671875 L 128.648438 311.042969 C 126.882812 320.128906 119.5625 327.191406 110.480469 329.210938 L 41.839844 342.835938 C 17.109375 347.882812 17.109375 383.203125 41.839844 388.25 L 110.226562 402.632812 C 119.3125 404.398438 126.378906 411.714844 128.394531 420.796875 L 142.023438 489.425781 C 147.070312 514.152344 182.398438 514.152344 187.445312 489.425781 L 201.828125 421.050781 C 203.59375 411.96875 210.914062 404.902344 219.996094 402.882812 L 288.636719 389.261719 C 313.367188 384.214844 313.367188 348.890625 288.636719 343.84375 Z M 288.636719 343.84375 " fill-opacity="1" fill-rule="nonzero"/><path fill="#000000" d="M 625.019531 472.519531 C 618.203125 471.761719 586.660156 471.511719 530.640625 471.511719 C 474.617188 471.761719 443.074219 472.015625 436.261719 472.773438 C 330.273438 482.613281 274.757812 547.203125 269.710938 666.542969 C 268.953125 685.714844 278.039062 695.304688 297.46875 695.304688 L 305.542969 695.304688 C 323.460938 695.304688 332.796875 686.226562 333.808594 668.308594 C 337.59375 600.941406 363.332031 560.070312 410.773438 546.191406 C 426.925781 541.398438 467.046875 539.128906 530.640625 539.128906 C 594.484375 539.128906 634.351562 541.144531 650.753906 545.941406 C 698.195312 559.816406 723.933594 600.4375 727.972656 667.804688 C 728.980469 685.714844 738.320312 694.800781 756.238281 694.800781 L 764.316406 694.800781 C 783.746094 694.800781 792.828125 685.210938 792.070312 665.785156 C 786.769531 546.445312 731.003906 482.105469 625.019531 472.519531 Z M 625.019531 472.519531 " fill-opacity="1" fill-rule="nonzero"/><path fill="#000000" d="M 530.890625 426.09375 C 616.945312 426.09375 686.589844 356.460938 686.589844 270.421875 C 686.589844 184.386719 616.945312 114.75 530.890625 114.75 C 444.839844 114.75 375.191406 184.386719 375.191406 270.421875 C 375.191406 356.460938 444.839844 426.09375 530.890625 426.09375 Z M 531.394531 182.621094 C 579.59375 182.621094 618.710938 221.726562 618.710938 269.917969 C 618.710938 318.109375 579.59375 357.214844 531.394531 357.214844 C 483.199219 357.214844 444.082031 318.109375 444.082031 269.917969 C 444.082031 221.726562 483.199219 182.621094 531.394531 182.621094 Z M 531.394531 182.621094 " fill-opacity="1" fill-rule="nonzero"/></svg>