<svg width="397" height="141" viewBox="0 0 397 141" fill="none" xmlns="http://www.w3.org/2000/svg">
<path d="M148.543 91.05C134.823 91.05 125.163 80.97 125.163 65.36C125.163 50.52 134.543 39.95 149.733 39.95C162.473 39.95 171.223 47.51 173.323 59.9H164.713C163.173 52.2 157.503 47.51 149.733 47.51C139.933 47.51 133.773 54.37 133.773 65.36C133.773 76.49 140.003 83.42 149.383 83.42C157.013 83.42 161.983 78.45 161.983 71.45H147.213V64.38H163.943C170.243 64.38 173.673 67.53 173.673 73.48V90H166.253V75.02H166.113C165.133 84.82 158.693 91.05 148.543 91.05ZM189.919 90H181.659V52.9H188.309L189.289 60.18C191.669 55.14 196.009 52.48 202.169 52.48H203.569V60.53H202.169C194.469 60.53 189.919 64.66 189.919 71.66V90ZM216.185 104H209.465V97H216.185C219.265 97 220.945 95.88 221.645 93.92L223.115 90H221.575L206.875 52.9H215.765L226.405 81.04L236.835 52.9H245.445L229.275 96.37C227.385 101.34 223.465 104 216.185 104ZM262.955 90H254.695V59.9H248.185V52.9H254.695V48.28C254.695 41.28 258.825 37.5 266.525 37.5H274.575V44.5H267.085C264.425 44.5 262.955 46.04 262.955 48.84V52.9H278.285V40.23H286.615V52.9H296.135V59.9H286.615V78.1C286.615 81.25 288.225 83 291.235 83H295.435V90H290.675C282.625 90 278.285 86.01 278.285 78.66V59.9H262.955V90ZM318.505 91.05C306.465 91.05 299.465 82.58 299.465 71.1C299.465 58.99 307.655 51.78 318.505 51.78C330.475 51.78 337.475 60.18 337.475 71.1C337.475 83.63 329.565 91.05 318.505 91.05ZM318.505 83.98C325.155 83.98 329.075 78.52 329.075 71.1C329.075 63.75 324.945 58.85 318.505 58.85C312.065 58.85 307.865 63.75 307.865 71.1C307.865 79.22 312.415 83.98 318.505 83.98Z" fill="white"/>
<path fill-rule="evenodd" clip-rule="evenodd" d="M42.1229 41C41.3447 41 40.7083 41.6319 40.7661 42.4081C40.9248 44.5355 41.4422 46.628 42.3013 48.6041C43.3495 51.015 44.8859 53.2056 46.8225 55.0506C48.7594 56.8959 51.0584 58.3595 53.5889 59.3581C55.6848 60.1851 57.9052 60.6797 60.1623 60.8252C60.939 60.8753 61.5707 60.2398 61.5707 59.4613V42.4093C61.5707 41.6311 60.9396 41 60.1614 41H42.1229ZM95.1553 60.2051C96.0947 59.6383 97.2925 60.3147 97.2925 61.4117V99.5907C97.2925 100.369 96.6617 101 95.8833 101H83.1072C82.329 101 81.698 100.369 81.698 99.5907V69.1195C81.698 68.6257 81.9564 68.168 82.3795 67.9129L95.1553 60.2051ZM39.7483 92.7378C38.8092 93.3023 37.6133 92.6256 37.6133 91.5298V76.6249C37.6133 76.1303 37.8726 75.6717 38.2968 75.4169L95.1166 41.2762C96.0558 40.7119 97.2517 41.3884 97.2517 42.4842V57.3891C97.2517 57.8838 96.9924 58.3423 96.5682 58.5971L39.7483 92.7378Z" fill="url(#paint0_linear_479_2731)"/>
<defs>
<linearGradient id="paint0_linear_479_2731" x1="97.3658" y1="41" x2="37.6133" y2="100.893" gradientUnits="userSpaceOnUse">
<stop stop-color="#FFD600"/>
<stop offset="0.265" stop-color="#FE660A"/>
<stop offset="0.469" stop-color="#E265FF"/>
<stop offset="0.719" stop-color="#FF336A"/>
<stop offset="1" stop-color="#0052FF"/>
</linearGradient>
</defs>
</svg>
