<svg width="60" height="60" viewBox="0 0 60 60" fill="none" xmlns="http://www.w3.org/2000/svg">
<circle cx="30" cy="30" r="30" fill="#E6811E"/>
<g clip-path="url(#clip0_484_42)">
<path d="M49.0738 11L31.9102 23.6998L35.1019 16.2155L49.0738 11Z" fill="#D89766"/>
<path d="M10.9673 11.0146L24.9018 16.2161L27.9324 23.7986L10.9673 11.0146ZM42.1655 38.0087L49.7516 38.1531L47.1004 47.1596L37.8437 44.6111L42.1655 38.0087ZM17.8341 38.0087L22.1399 44.6111L12.8988 47.1598L10.2637 38.1531L17.8341 38.0087Z" fill="#D89766"/>
<path d="M27.5214 21.8676L27.8314 31.8805L18.5547 31.4585L21.1934 27.4776L21.2269 27.4393L27.5214 21.8676ZM32.3844 21.7559L38.775 27.4396L38.8081 27.4777L41.4469 31.4587L32.1722 31.8805L32.3844 21.7559ZM22.4127 38.0382L27.478 41.9849L21.5939 44.8257L22.4127 38.0382ZM37.5902 38.0376L38.3919 44.8259L32.5242 41.9846L37.5902 38.0376Z" fill="#E27625"/>
<path d="M32.653 41.6133L38.6073 44.4964L33.0687 47.1286L33.1262 45.3889L32.653 41.6133ZM27.3457 41.6145L26.8912 45.3605L26.9285 47.1266L21.377 44.4964L27.3457 41.6145Z" fill="#D5BFB2"/>
<path d="M25.6262 33.1875L27.1821 36.4575L21.8848 34.9056L25.6262 33.1875ZM34.3738 33.1878L38.1329 34.9056L32.8182 36.457L34.3738 33.1878Z" fill="#233447"/>
<path d="M22.8169 38.0048L21.9606 45.0423L17.3711 38.1587L22.8169 38.0048ZM37.1841 38.0049L42.63 38.1587L38.0233 45.0426L37.1841 38.0049ZM41.5803 31.0605L37.617 35.0998L34.5613 33.7034L33.0983 36.779L32.1392 31.4901L41.5803 31.0605ZM18.4183 31.0605L27.8612 31.4901L26.902 36.779L25.4388 33.7038L22.3992 35.0999L18.4183 31.0605Z" fill="#E09F7B"/>
<path d="M18.1504 30.2318L22.6345 34.7819L22.7898 39.2739L18.1504 30.2318ZM41.853 30.2236L37.2052 39.2819L37.3802 34.7819L41.853 30.2236ZM27.6412 30.5089L27.8216 31.6449L28.2676 34.4747L27.9809 43.1661L26.6254 36.1841L26.6249 36.1119L27.6412 30.5089ZM32.3554 30.4932L33.3743 36.1119L33.3738 36.1841L32.0149 43.1836L31.9612 41.4329L31.7491 34.4232L32.3554 30.4932Z" fill="#E27525"/>
<path d="M37.7787 34.6006L37.627 38.5034L32.8966 42.1889L31.9404 41.5132L33.0123 35.9921L37.7787 34.6006ZM22.2363 34.6006L26.9862 35.9921L28.058 41.5132L27.1018 42.1889L22.3713 38.5031L22.2363 34.6006Z" fill="#F5841F"/>
<path d="M20.4707 43.6338L26.5226 46.5013L26.497 45.2768L27.0034 44.8322H32.993L33.5177 45.2752L33.479 46.4988L39.4926 43.641L36.5663 46.0591L33.028 48.4893H26.9548L23.4188 46.0491L20.4707 43.6338Z" fill="#C0AC9D"/>
<path d="M32.2193 41.2314L33.0749 41.836L33.5763 45.8366L32.8507 45.2239H27.1513L26.4395 45.8489L26.9245 41.8363L27.7804 41.2314H32.2193Z" fill="#161616"/>
<path d="M47.9397 11.3516L50 17.5323L48.7133 23.7819L49.6295 24.4886L48.3897 25.4345L49.3216 26.1542L48.0877 27.2778L48.8452 27.8264L46.8348 30.1742L38.5895 27.7734L38.5181 27.7352L32.5764 22.723L47.9397 11.3516ZM12.0603 11.3516L27.4238 22.723L21.4819 27.7352L21.4105 27.7734L13.1652 30.1742L11.1548 27.8264L11.9117 27.2783L10.6786 26.1542L11.6086 25.4353L10.3502 24.4867L11.3009 23.7795L10 17.5327L12.0603 11.3516Z" fill="#F7E1C6"/>
<path d="M38.1853 27.2485L46.9217 29.7921L49.76 38.5399H42.2719L37.1125 38.6049L40.8647 31.2912L38.1853 27.2485ZM21.8128 27.2485L19.133 31.2912L22.8856 38.6049L17.7286 38.5399H10.2539L13.0762 29.7923L21.8128 27.2485ZM35.5278 16.1738L33.0842 22.7737L32.5656 31.6893L32.3672 34.4838L32.3514 41.6226H27.6466L27.6313 34.4973L27.4322 31.687L26.9134 22.7737L24.4702 16.1738H35.5278Z" fill="#FFBD81"/>
</g>
<defs>
<clipPath id="clip0_484_42">
<rect width="40" height="37.5" fill="white" transform="translate(10 11)"/>
</clipPath>
</defs>
</svg>
