<svg width="897" height="897" viewBox="0 0 897 897" fill="none" xmlns="http://www.w3.org/2000/svg">
<path d="M166.192 568.959L139.582 569.459L126.1 569.66C121.597 569.744 117.072 569.727 112.557 569.759L111.76 569.764L111.757 568.959L111.66 546.295L111.656 545.395L112.557 545.398L139.374 545.511C148.313 545.52 157.251 545.712 166.19 545.805L166.684 545.811L166.68 546.295C166.646 550.132 166.526 553.952 166.445 557.732L166.192 568.959ZM166.192 568.959L165.937 557.522C165.857 553.747 165.736 550.012 165.702 546.295L166.192 546.785C157.253 546.876 148.315 547.07 139.375 547.079L112.559 547.192L113.454 546.297L113.357 568.96L112.557 568.16C116.981 568.193 121.396 568.175 125.831 568.259L139.165 568.46L166.192 568.959Z" fill="#EBEBEB"/>
<path d="M136.27 597.537L109.66 598.037L96.1779 598.238C91.6749 598.323 87.1505 598.305 82.635 598.337L81.8384 598.342L81.8348 597.537L81.738 574.873L81.7344 573.973L82.635 573.976L109.452 574.089C118.391 574.098 127.329 574.29 136.268 574.383L136.762 574.389L136.758 574.873C136.724 578.711 136.604 582.53 136.523 586.31L136.27 597.537ZM136.27 597.537L136.015 586.1C135.935 582.327 135.814 578.59 135.78 574.873L136.27 575.363C127.331 575.454 118.393 575.648 109.453 575.657L82.6368 575.77L83.532 574.875L83.4351 597.539L82.635 596.739C87.059 596.771 91.474 596.753 95.9106 596.837L109.245 597.038L136.27 597.537Z" fill="#EBEBEB"/>
<path d="M136.27 107.127L109.66 107.627L96.1779 107.828C91.6749 107.912 87.1505 107.895 82.635 107.927L81.8384 107.932L81.8348 107.127L81.738 84.4631L81.7344 83.5625L82.635 83.5661L109.452 83.6791C118.391 83.6881 127.329 83.88 136.268 83.9733L136.762 83.9787L136.758 84.4631C136.724 88.3005 136.604 92.1199 136.523 95.8998L136.27 107.127ZM136.27 107.127L136.015 95.6899C135.935 91.9172 135.814 88.1803 135.78 84.4631L136.27 84.9529C127.331 85.0443 118.393 85.2381 109.453 85.2471L82.6368 85.3583L83.532 84.4631L83.4351 107.127L82.635 106.327C87.059 106.359 91.474 106.341 95.9106 106.425L109.245 106.626L136.27 107.127Z" fill="#EBEBEB"/>
<path d="M814.364 107.127L787.754 107.627L774.272 107.828C769.769 107.912 765.244 107.895 760.729 107.927L759.932 107.932L759.929 107.127L759.832 84.4631L759.828 83.5625L760.729 83.5661L787.545 83.6791C796.485 83.6881 805.423 83.88 814.362 83.9733L814.855 83.9787L814.852 84.4631C814.818 88.3005 814.698 92.1199 814.617 95.8998L814.364 107.127ZM814.364 107.127L814.109 95.6899C814.028 91.9172 813.908 88.1803 813.874 84.4631L814.364 84.9529C805.424 85.0443 796.485 85.2381 787.547 85.2471L760.73 85.3601L761.626 84.4649L761.529 107.128L760.73 106.328C765.154 106.361 769.57 106.343 774.006 106.427L787.341 106.628L814.364 107.127Z" fill="#EBEBEB"/>
<path d="M784.442 135.705L757.832 136.205L744.35 136.406C739.847 136.491 735.322 136.473 730.807 136.505L730.01 136.51L730.007 135.705L729.91 113.041L729.906 112.141L730.807 112.144L757.624 112.257C766.563 112.266 775.501 112.46 784.44 112.551L784.934 112.557L784.93 113.041C784.896 116.879 784.776 120.698 784.695 124.478L784.442 135.705ZM784.442 135.705L784.187 124.268C784.107 120.495 783.986 116.758 783.952 113.041L784.442 113.531C775.503 113.622 766.565 113.816 757.625 113.825L730.809 113.938L731.704 113.043L731.607 135.707L730.807 134.906C735.231 134.939 739.646 134.921 744.082 135.005L757.417 135.206L784.442 135.705Z" fill="#EBEBEB"/>
<path d="M638.919 347.484L612.308 347.985L598.826 348.186C594.323 348.27 589.799 348.252 585.283 348.284L584.487 348.29L584.483 347.484L584.386 324.821L584.383 323.92L585.283 323.924L612.1 324.037C621.04 324.046 629.977 324.239 638.917 324.331L639.41 324.336L639.407 324.821C639.372 328.658 639.252 332.477 639.172 336.257L638.919 347.484ZM638.919 347.484L638.664 336.046C638.583 332.273 638.463 328.536 638.429 324.819L638.919 325.308C629.979 325.4 621.041 325.594 612.102 325.603L585.285 325.716L586.18 324.821L586.084 347.484L585.283 346.684C589.707 346.716 594.122 346.698 598.559 346.783L611.894 346.984L638.919 347.484Z" fill="#EBEBEB"/>
<path d="M608.997 376.062L582.386 376.563L568.904 376.764C564.401 376.848 559.877 376.83 555.361 376.862L554.565 376.868L554.561 376.062L554.464 353.399L554.461 352.498L555.361 352.502L582.178 352.615C591.118 352.624 600.055 352.817 608.995 352.909L609.488 352.914L609.485 353.399C609.451 357.236 609.33 361.055 609.25 364.835L608.997 376.062ZM608.997 376.062L608.742 364.625C608.661 360.853 608.541 357.116 608.507 353.399L608.997 353.888C600.057 353.98 591.12 354.174 582.18 354.183L555.363 354.296L556.258 353.4L556.162 376.064L555.361 375.264C559.786 375.296 564.201 375.278 568.637 375.363L581.972 375.563L608.997 376.062Z" fill="#EBEBEB"/>
<path d="M579.2 347.484L552.589 347.985L539.108 348.186C534.605 348.27 530.08 348.252 525.565 348.284L524.768 348.29L524.765 347.484L524.668 324.821L524.664 323.92L525.565 323.924L552.381 324.037C561.321 324.046 570.26 324.239 579.198 324.331L579.691 324.336L579.688 324.821C579.654 328.658 579.534 332.477 579.453 336.257L579.2 347.484ZM579.2 347.484L578.945 336.047C578.864 332.275 578.744 328.538 578.71 324.821L579.2 325.31C570.26 325.402 561.323 325.596 552.383 325.604L525.566 325.718L526.462 324.822L526.365 347.486L525.565 346.686C529.99 346.718 534.404 346.7 538.84 346.784L552.175 346.985L579.2 347.484Z" fill="#EBEBEB"/>
<path d="M814.364 597.537L787.754 598.037L774.272 598.238C769.769 598.323 765.244 598.305 760.729 598.337L759.932 598.342L759.929 597.537L759.832 574.873L759.828 573.973L760.729 573.976L787.545 574.089C796.485 574.098 805.423 574.29 814.362 574.383L814.855 574.389L814.852 574.873C814.818 578.711 814.698 582.53 814.617 586.31L814.364 597.537ZM814.364 597.537L814.109 586.1C814.028 582.327 813.908 578.59 813.874 574.873L814.364 575.363C805.424 575.454 796.485 575.648 787.547 575.657L760.73 575.77L761.626 574.875L761.529 597.539L760.73 596.739C765.154 596.771 769.57 596.753 774.006 596.837L787.341 597.038L814.364 597.537Z" fill="#EBEBEB"/>
<path d="M330.833 265.904L304.222 266.405L290.74 266.605C286.237 266.69 281.713 266.672 277.197 266.704L276.401 266.71L276.397 265.904L276.3 243.24L276.297 242.34L277.197 242.343L304.014 242.456C312.954 242.465 321.891 242.659 330.831 242.751L331.324 242.756L331.321 243.24C331.287 247.078 331.166 250.897 331.086 254.677L330.833 265.904ZM330.833 265.904L330.578 254.467C330.497 250.694 330.377 246.958 330.343 243.24L330.833 243.73C321.893 243.822 312.955 244.015 304.016 244.024L277.199 244.137L278.094 243.242L277.998 265.906L277.197 265.106C281.621 265.138 286.036 265.12 290.473 265.204L303.808 265.405L330.833 265.904Z" fill="#EBEBEB"/>
<path d="M83.4196 637.968H338.84L347.055 475.896H75.2031L83.4196 637.968Z" fill="#EBEBEB"/>
<path d="M320.023 549.988H95.2654L92.1797 493.92H323.624L320.023 549.988ZM96.9625 548.194H318.34L321.709 495.714H94.0742L96.9625 548.194Z" fill="#DBDBDB"/>
<path d="M316.978 614.718H101.736L99.2188 564.129H320.139L316.978 614.718ZM103.444 612.924H315.293L318.23 565.923H101.104L103.444 612.924Z" fill="#DBDBDB"/>
<path d="M233.422 527.957H185.913L184.188 514.586H235.15L233.422 527.957ZM187.49 526.163H231.847L233.11 516.38H186.229L187.49 526.163Z" fill="#DBDBDB"/>
<path d="M233.422 596.109H185.913L184.188 582.738H235.15L233.422 596.109ZM187.49 594.315H231.847L233.11 584.532H186.229L187.49 594.315Z" fill="#DBDBDB"/>
<path d="M118.84 637.969L116.36 655.625L111.371 691.102H101.617V637.969H118.84Z" fill="#EBEBEB"/>
<path d="M118.84 637.969L116.36 655.625H101.617V637.969H118.84Z" fill="#DBDBDB"/>
<path d="M303.414 637.969L305.893 655.625L310.882 691.102H320.636V637.969H303.414Z" fill="#EBEBEB"/>
<path d="M303.414 637.969L305.893 655.625H320.636V637.969H303.414Z" fill="#DBDBDB"/>
<path d="M77.8125 691.075L170.483 690.639L263.156 690.481L448.5 690.18L633.843 690.479L726.514 690.637L819.187 691.075L726.514 691.514L633.843 691.672L448.5 691.97L263.156 691.67L170.483 691.511L77.8125 691.075Z" fill="#263238"/>
<path d="M801.056 536.361C779.931 564.97 757.907 598.171 752.542 634.049C752.478 634.593 753.348 634.769 753.474 634.231C755.926 624.39 759.028 614.836 762.815 605.505C776.702 601.684 790.333 598.544 797.627 584.759C805.065 570.588 804.12 552.114 802.706 536.68C802.608 535.851 801.486 535.81 801.056 536.361Z" fill="white"/>
<path d="M763.024 605.234C772.514 583.939 784.697 562.556 800.181 545.045C800.285 544.929 800.448 545.097 800.352 545.216C790.214 557.687 782.51 571.27 774.986 585.089C781.981 577.988 789.645 571.629 796.27 564.097C796.399 563.95 796.606 564.164 796.482 564.311C789.903 572.205 782.716 580.783 774.148 586.626C771.847 590.866 769.531 595.121 767.18 599.373C767.756 599.052 768.35 598.765 768.94 598.472C769.044 598.42 769.136 598.575 769.032 598.628C768.377 598.958 767.731 599.306 767.057 599.593C765.943 601.606 764.841 603.619 763.697 605.629C763.444 606.077 762.823 605.684 763.024 605.234Z" fill="#263238"/>
<path d="M770.083 597.806C775.745 594.559 781.204 591.071 786.299 586.981C786.437 586.869 786.638 587.061 786.496 587.18C781.493 591.415 776.159 595.208 770.316 598.204C770.053 598.34 769.823 597.955 770.083 597.806Z" fill="#263238"/>
<path d="M750.1 628.716C750.143 629.15 750.883 629.143 750.872 628.68C750.981 616.864 750.883 604.995 751.06 593.128C754.087 587.019 760.584 583.64 765.102 578.744C768.36 575.211 771.146 571.227 773.528 567.011C779.115 557.015 782.139 545.775 783.304 534.418C784.551 521.779 779.755 480.077 774.429 481.525C771.666 482.275 762.727 502.931 760.355 509.759C756.471 520.993 753.739 532.633 751.946 544.381C747.626 572.187 747.987 600.736 750.1 628.716Z" fill="white"/>
<path d="M750.013 577.748C750.031 577.734 750.049 577.718 750.067 577.702C750.715 562.752 754.082 547.656 757.234 533.156C760.63 517.536 764.6 502.829 772.639 488.897C772.788 488.638 773.172 488.866 773.037 489.13C767.567 499.908 763.656 511.35 760.662 523.103C761.2 522.26 761.853 521.461 762.415 520.667C762.636 520.354 763.152 520.645 762.935 520.97C762.148 522.147 761.435 523.519 760.424 524.517C760.39 524.549 760.354 524.554 760.32 524.565C757.553 535.729 755.565 547.15 753.867 558.542C753.994 558.398 754.116 558.242 754.245 558.102C754.331 558.009 754.478 558.127 754.419 558.235C754.209 558.613 753.972 558.988 753.741 559.365C752.885 565.147 752.091 570.918 751.292 576.638C761.588 567.838 770.38 557.465 775.339 544.686C775.362 544.627 775.459 544.652 775.436 544.713C770.578 557.969 762.919 569.754 751.129 577.797C750.914 579.338 750.698 580.88 750.479 582.413C750.435 582.732 749.927 582.648 749.927 582.337C749.932 580.976 749.997 579.61 750.051 578.245C749.904 578.116 749.834 577.897 750.013 577.748Z" fill="#263238"/>
<path d="M754.86 556.088C762.726 544.346 770.076 532.941 775.833 519.964C775.896 519.82 776.145 519.922 776.09 520.071C771.239 532.966 764.443 546.034 755.254 556.392C755.066 556.602 754.7 556.324 754.86 556.088Z" fill="#263238"/>
<path d="M765.317 517.063C768.576 511.297 772.014 505.683 775.08 499.804C775.166 499.641 775.392 499.785 775.322 499.946C772.747 505.956 769.672 512.059 765.819 517.357C765.604 517.653 765.128 517.396 765.317 517.063Z" fill="#263238"/>
<path d="M764.041 519.57C764.105 519.57 764.105 519.671 764.041 519.671C763.976 519.671 763.976 519.57 764.041 519.57Z" fill="#263238"/>
<path d="M742.103 594.548C741.902 602.377 741.055 610.206 739.342 617.825C739.462 618.666 739.584 619.506 739.708 620.372C742.177 611.892 743.465 603.2 743.872 594.426C744.007 594.182 744.062 593.92 743.908 593.624C743.908 593.624 743.908 593.624 743.906 593.599C744.353 581.882 743.266 570.036 741.298 558.443C737.64 536.731 729.646 515.891 714.502 499.618C714.023 499.116 713.065 499.376 712.83 499.963C706.72 515.5 708.853 534.04 714.058 549.542C716.89 557.891 720.932 565.91 726.067 573.088C731.262 580.391 737.884 586.571 742.103 594.548Z" fill="white"/>
<path d="M716.297 506.891C730.647 530.183 740.634 557.798 741.854 585.313C741.875 585.799 741.056 585.93 740.987 585.429C740.646 582.957 740.27 580.506 739.873 578.067C739.864 578.059 739.857 578.065 739.848 578.058C733.91 572.371 727.816 566.372 723.564 559.266C723.491 559.142 723.67 558.995 723.769 559.108C728.933 565.012 733.754 571.059 739.586 576.323C738.558 570.239 737.342 564.253 735.9 558.354C735.516 557.913 735.141 557.463 734.764 557.019C734.515 556.727 734.931 556.302 735.189 556.592C735.302 556.72 735.419 556.847 735.534 556.975C733.501 548.875 731.018 540.945 728.029 533.152C724.375 528.794 720.292 525.027 717.629 519.778C717.565 519.65 717.739 519.552 717.82 519.667C719.96 522.668 722.028 525.689 724.457 528.475C725.424 529.584 726.486 530.623 727.489 531.706C724.224 523.389 720.349 515.232 715.74 507.214C715.536 506.856 716.081 506.54 716.297 506.891Z" fill="#263238"/>
<path d="M719.194 535.623C723.833 541.866 729.12 547.822 733.431 554.276C733.554 554.46 733.285 554.65 733.131 554.507C727.589 549.31 722.902 542.211 718.881 535.806C718.756 535.605 719.059 535.442 719.194 535.623Z" fill="#263238"/>
<path d="M734.086 555.72L734.283 555.918C734.419 556.056 734.208 556.268 734.071 556.131L733.874 555.934C733.734 555.796 733.947 555.582 734.086 555.72Z" fill="#263238"/>
<path d="M693.811 551.666C694.965 563.65 701.269 577.964 708.954 587.196C712.361 591.279 716.495 594.404 721.234 596.779C726.554 599.411 732.122 602.441 737.626 604.601C740.199 611.167 742.167 618.045 743.428 625.214C743.606 624.615 743.781 623.989 743.959 623.388C740.427 593.048 720.795 567.117 695.682 550.469C694.78 549.872 693.711 550.641 693.811 551.666Z" fill="white"/>
<path d="M702.483 560.631C702.307 560.475 702.546 560.157 702.738 560.299C716.046 570.157 728.037 584.533 734.736 599.735C734.919 600.149 734.348 600.514 734.111 600.099C732.944 598.054 731.754 596.064 730.543 594.111C730.536 594.109 730.532 594.114 730.525 594.114C724.793 593.034 719.365 589.001 715.109 585.171C714.995 585.067 715.163 584.899 715.28 585.001C717.501 586.958 719.885 588.75 722.533 590.094C724.869 591.28 727.384 592.03 729.817 592.979C727.693 589.606 725.477 586.373 723.166 583.237C716.997 581.137 711.125 577.348 705.94 573.553C705.777 573.435 705.921 573.168 706.102 573.275C711.387 576.456 716.597 579.255 722.113 581.834C718.638 577.231 714.876 572.872 710.809 568.656C708.861 567.628 706.886 566.593 704.997 565.493C704.842 565.403 704.943 565.141 705.12 565.199C706.624 565.699 708.156 566.487 709.58 567.389C707.318 565.1 704.982 562.838 702.483 560.631Z" fill="#263238"/>
<path d="M703.018 571.106C703.364 571.327 703.678 571.526 703.985 571.795C704.076 571.877 703.96 571.994 703.863 571.953C703.495 571.793 703.194 571.597 702.856 571.382C702.682 571.273 702.842 570.995 703.018 571.106Z" fill="#263238"/>
<path d="M783.148 690.917H714.336L719.892 628.251L721.11 614.43H776.374L777.594 628.251L783.148 690.917Z" fill="#E91A3D"/>
<path d="M777.593 628.251H719.891L721.109 614.43H776.373L777.593 628.251Z" fill="#263238"/>
<path d="M779.668 604.77H717.82V618.447H779.668V604.77Z" fill="#E91A3D"/>
<path d="M448.499 760.274C525.68 760.274 588.248 749.884 588.248 737.067C588.248 724.25 525.68 713.859 448.499 713.859C371.318 713.859 308.75 724.25 308.75 737.067C308.75 749.884 371.318 760.274 448.499 760.274Z" fill="#EBEBEB"/>
<path d="M313.992 474.495C313.992 474.495 324.684 411.716 329.207 399.325C332.334 390.762 345.104 369.186 354.223 353.172C356.06 349.945 367.832 342.116 373.481 339.129C381.09 335.107 395.413 341.589 396.457 358.126C396.891 365.006 385.2 372.838 381.929 380.066C377.338 390.215 377.03 403.421 376.651 405.539C376.004 409.169 401.356 437.225 400.249 447.914C399.141 458.602 369.755 495.298 363.388 497.408C357.019 499.52 314.152 484.861 313.992 474.495Z" fill="white"/>
<path d="M366.191 366.291C371.908 370.499 381.058 373.015 385.988 374.159C390.6 368.704 396.777 363.169 396.454 358.124C395.411 341.596 381.086 335.109 373.48 339.126C369.59 341.184 362.814 345.538 358.369 349.093C358.369 349.093 358.048 360.308 366.191 366.291Z" fill="#EBEBEB"/>
<path d="M389.932 343.077C390.05 343.013 390.167 343.176 390.07 343.269C387.526 345.664 385.064 348.176 382.761 350.804C380.664 353.199 378.719 355.716 378.436 359.001C378.419 359.198 378.129 359.193 378.127 358.992C378.077 355.804 378.945 352.445 380.831 349.844C383.118 346.685 386.602 344.907 389.932 343.077Z" fill="#263238"/>
<path d="M382.17 337.291C382.285 337.224 382.405 337.389 382.308 337.483C380.369 339.331 378.166 341.957 375.676 345.084C373.896 347.319 370.773 350.631 372.037 353.72C372.254 354.253 371.948 354.314 371.628 353.831C369.702 350.931 371.682 347.222 373.39 344.739C375.642 341.467 378.779 339.253 382.17 337.291Z" fill="#263238"/>
<path opacity="0.1" d="M363.397 497.414C369.764 495.297 399.135 458.606 400.25 447.923C401.098 439.753 386.529 421.483 379.873 411.672L324.747 417.079C319.869 439.969 313.992 474.489 313.992 474.489C314.154 484.863 357.023 499.517 363.397 497.414Z" fill="black"/>
<path d="M210.508 497.276C210.508 497.276 157.006 492.479 155.092 496.3C153.843 498.795 165.642 530.671 172.357 541.241C179.072 551.812 222.164 592.442 233.568 601.391L210.508 497.276Z" fill="white"/>
<path opacity="0.1" d="M188.698 540.826C193.253 547.995 214.361 568.062 228.979 580.626L211.696 502.666C198.307 500.913 170.841 497.648 169.693 500.278C168.697 502.533 182.265 530.699 188.698 540.826Z" fill="black"/>
<path d="M261.849 438.894C261.877 437.574 250.039 398.845 267.539 374.75C270.781 370.286 329.685 424.878 329.685 424.878L261.849 438.894Z" fill="white"/>
<path opacity="0.1" d="M273.022 436.585L327.364 425.36C321.694 420.132 280.202 382.062 277.753 385.418C264.625 403.489 271.914 431.729 273.022 436.585Z" fill="black"/>
<path d="M425.024 496.936C425.024 496.936 405.959 446.219 372.905 421.728C368.806 418.69 289.412 421.401 273.634 425.332C269.138 426.453 217.288 473.556 202.487 503.95C200.039 508.977 212.048 564.747 231.412 597.986C236.211 606.223 322.273 680.356 378.515 692.9C389.133 695.268 523.583 691.016 555.884 668.76C588.185 646.503 644.497 565.589 647.941 543.002C651.386 520.414 571.025 452.113 543.686 452.12C516.348 452.127 425.024 496.936 425.024 496.936Z" fill="white"/>
<path d="M303.024 436.374C309.499 426.635 322.479 428.201 333.84 435.752C343.041 441.867 348.594 453.894 342.379 463.241C336.165 472.588 321.282 471.029 312.642 465.286C304.004 459.544 295.995 446.95 303.024 436.374Z" fill="#263238"/>
<path d="M304.786 438.894C310.871 429.739 323.072 431.21 333.752 438.309C342.401 444.059 347.62 455.363 341.78 464.15C335.939 472.937 321.949 471.471 313.828 466.073C305.705 460.673 298.177 448.835 304.786 438.894Z" fill="white"/>
<path d="M313.55 442.541C318.314 435.374 327.866 436.526 336.224 442.084C342.994 446.585 347.079 455.433 342.508 462.311C337.935 469.189 326.983 468.041 320.627 463.816C314.269 459.59 308.376 450.322 313.55 442.541Z" fill="#263238"/>
<path d="M306.711 445.107C308.874 441.852 313.212 442.374 317.007 444.898C320.082 446.942 321.937 450.96 319.861 454.084C317.785 457.207 312.81 456.687 309.924 454.767C307.037 452.848 304.362 448.639 306.711 445.107Z" fill="white"/>
<path d="M259.54 504.388C248.37 514.72 250.683 528.487 259.945 538.501C267.448 546.612 281.737 548.761 292.456 538.847C303.175 528.932 300.802 513.067 293.757 505.452C286.713 497.836 271.667 493.17 259.54 504.388Z" fill="#263238"/>
<path d="M262.559 505.494C252.06 515.205 254.233 528.147 262.939 537.56C269.991 545.184 283.423 547.205 293.5 537.885C303.575 528.565 301.343 513.651 294.722 506.493C288.1 499.335 273.958 494.951 262.559 505.494Z" fill="white"/>
<path d="M270.803 509.557C262.584 517.158 264.285 527.289 271.1 534.659C276.62 540.627 287.135 542.208 295.023 534.913C302.91 527.617 301.164 515.944 295.98 510.339C290.797 504.735 279.726 501.303 270.803 509.557Z" fill="#263238"/>
<path d="M261.574 514.612C257.842 518.063 258.614 522.663 261.71 526.011C264.216 528.721 268.992 529.439 272.573 526.125C276.155 522.812 275.361 517.511 273.007 514.967C270.653 512.423 265.627 510.864 261.574 514.612Z" fill="white"/>
<path d="M304.86 488.376C305.965 489.011 314.274 485.717 314.8 485.014C315.319 484.319 316.187 475.305 315.293 474.386C314.411 473.475 309.795 478.88 308.713 480.333C307.622 481.793 303.758 487.76 304.86 488.376Z" fill="#263238"/>
<path d="M325.901 475.229C326.597 477.297 327.262 479.373 327.723 481.461C327.937 482.5 328.141 483.56 328.109 484.532C328.097 485.004 327.978 485.47 327.826 485.646C327.666 485.82 327.264 486.062 326.864 486.154C326.021 486.38 324.995 486.299 323.994 486.179C322.982 486.037 321.963 485.804 320.951 485.514C318.935 484.941 316.891 484.225 314.975 483.389L311.421 481.838L313.596 485.056C315.029 487.177 316.328 489.485 317.377 491.818C317.901 492.987 318.352 494.184 318.628 495.386C318.875 496.572 319.021 497.81 318.628 498.76L318.461 499.098L318.249 499.401C318.066 499.607 317.865 499.805 317.643 499.987C317.193 500.348 316.669 500.657 316.104 500.904C314.972 501.41 313.705 501.694 312.424 501.898C309.848 502.287 307.18 502.307 304.523 502.158C307.125 502.759 309.81 503.052 312.53 502.931C313.89 502.869 315.262 502.662 316.615 502.205C317.944 501.719 319.34 501.03 320.164 499.469C320.878 497.953 320.768 496.394 320.533 495.002C320.271 493.597 319.832 492.275 319.322 490.996C318.274 488.441 316.954 486.095 315.451 483.784L314.071 485.451C316.161 486.305 318.233 487.037 320.425 487.557C321.518 487.812 322.636 488.009 323.786 488.111C324.937 488.199 326.138 488.196 327.383 487.769C328.009 487.53 328.604 487.221 329.11 486.531C329.557 485.784 329.525 485.106 329.507 484.505C329.408 483.3 329.092 482.227 328.723 481.176C327.969 479.087 327.015 477.11 325.901 475.229Z" fill="#263238"/>
<path d="M344.039 438.23C347.606 432.913 351.341 427.726 355.192 422.628C359.049 417.537 362.964 412.486 367.106 407.627C369.112 405.142 371.22 402.743 373.299 400.321C375.425 397.939 377.551 395.556 379.722 393.214C384.011 388.476 388.543 383.973 393.044 379.414C390.631 381.515 388.198 383.605 385.866 385.801C383.545 388.007 381.232 390.228 379.004 392.532C374.498 397.092 370.262 401.913 366.118 406.803C362.042 411.753 358.097 416.812 354.398 422.047C352.55 424.666 350.754 427.319 348.996 429.998C347.292 432.712 345.575 435.419 344.039 438.23Z" fill="#263238"/>
<path d="M348.57 438.484C350.465 436.305 352.348 434.125 354.286 431.988C356.197 429.83 358.127 427.692 360.082 425.576C363.983 421.337 367.915 417.129 371.984 413.054C373.972 410.972 376.024 408.953 378.06 406.917L384.292 400.938L387.43 397.969L390.634 395.069C392.721 393.076 394.954 391.255 397.073 389.291C392.441 392.734 387.925 396.35 383.621 400.208C379.287 404.031 375.134 408.054 371.063 412.154C367.057 416.318 363.098 420.528 359.343 424.92C355.587 429.31 351.934 433.789 348.57 438.484Z" fill="#263238"/>
<path d="M350.391 442.014C352.176 440.4 353.95 438.781 355.767 437.208C357.563 435.611 359.361 434.022 361.192 432.47C364.848 429.358 368.492 426.236 372.215 423.208C375.921 420.162 379.662 417.155 383.434 414.184C387.193 411.193 391.032 408.31 394.819 405.336C392.776 406.606 390.754 407.916 388.748 409.245C386.769 410.614 384.782 411.974 382.837 413.393C378.912 416.186 375.135 419.177 371.397 422.212C367.681 425.276 364.045 428.437 360.534 431.735C357.021 435.028 353.577 438.401 350.391 442.014Z" fill="#263238"/>
<path d="M269.864 558.66C267.113 561.529 264.541 564.559 261.959 567.58C259.435 570.648 256.95 573.751 254.528 576.903C249.686 583.209 245.121 589.727 240.745 596.366C236.441 603.053 232.268 609.829 228.478 616.82C226.544 620.293 224.741 623.836 222.952 627.385C222.046 629.154 221.223 630.962 220.394 632.767L217.922 638.186C221.634 631.163 225.302 624.13 229.341 617.304C231.314 613.867 233.372 610.478 235.419 607.086C237.532 603.734 239.608 600.356 241.822 597.07C246.093 590.392 250.659 583.909 255.318 577.494C259.984 571.085 264.804 564.783 269.864 558.66Z" fill="#263238"/>
<path d="M271.809 563.938C267.516 569.673 263.557 575.651 259.743 581.716C255.922 587.778 252.366 594.003 248.896 600.275C245.504 606.588 242.244 612.976 239.264 619.496C236.232 625.99 233.559 632.65 231.102 639.372C232.628 636.13 233.961 632.811 235.544 629.6L237.799 624.734L240.159 619.921C241.724 616.708 243.358 613.531 244.967 610.341C246.639 607.182 248.283 604.01 250.026 600.89C253.39 594.586 256.953 588.388 260.584 582.229C262.394 579.147 264.24 576.085 266.119 573.04C267.97 569.978 269.886 566.957 271.809 563.938Z" fill="#263238"/>
<path d="M276.658 564.818C273.591 569.944 270.869 575.267 268.263 580.64C265.665 586.018 263.268 591.492 260.954 596.999C258.744 602.548 256.546 608.104 254.623 613.76C253.636 616.579 252.734 619.426 251.813 622.266C250.941 625.122 250.109 627.989 249.312 630.864C251.401 625.271 253.397 619.654 255.554 614.1C257.665 608.529 259.847 602.986 262.145 597.491C264.353 591.958 266.759 586.51 269.158 581.056C270.347 578.324 271.59 575.616 272.844 572.913C274.075 570.195 275.363 567.508 276.658 564.818Z" fill="#263238"/>
<path opacity="0.1" d="M322.242 530.536C325.33 528.924 328.439 527.531 331.503 526.134C333.012 525.389 334.554 524.747 335.995 523.963C337.416 523.208 338.891 522.408 339.877 521.536C340.79 520.763 341.503 519.367 342.19 517.917C342.897 516.473 343.451 514.907 344.068 513.35C345.241 510.208 346.355 506.994 347.685 503.773C347.823 507.265 347.462 510.714 346.757 514.127C346.441 515.845 345.923 517.523 345.326 519.227C344.676 520.879 343.928 522.693 342.276 524.204C340.676 525.56 339.068 526.311 337.43 527.031C335.783 527.696 334.149 528.294 332.468 528.75C329.128 529.688 325.73 530.353 322.242 530.536Z" fill="black"/>
<path d="M645.692 550.655C662.446 516.427 681.104 465.447 664.739 426.365C648.374 387.283 559.874 322.421 546.206 283.484C532.537 244.548 546.557 224.721 534.261 222.425C527.962 221.248 514.335 254.541 521.003 287.287C530.101 331.959 621.2 413.577 632.224 439.126C643.247 464.674 631.609 486.401 616.93 508.747L645.692 550.655Z" fill="white"/>
<path d="M474.96 432.265C474.365 432.236 473.762 432.121 473.17 431.913C469.901 430.761 468.184 427.181 469.332 423.912C469.424 423.65 478.507 397.185 479.131 353.515C479.506 327.361 465.775 316.451 451.236 304.9C437.744 294.179 423.792 283.092 424.863 260.541C425.72 242.504 438.598 234.152 449.959 226.782C461.11 219.548 471.643 212.715 473.955 197.174C478.979 163.409 448.73 131.804 448.423 131.49C446.009 129.003 446.062 125.03 448.547 122.613C451.028 120.199 455 120.247 457.418 122.726C458.846 124.19 492.326 159.04 486.377 199.023C483.229 220.169 468.572 229.677 456.792 237.32C445.113 244.896 437.93 250.098 437.406 261.141C436.64 277.267 446.529 285.125 459.047 295.07C473.794 306.789 492.148 321.37 491.686 353.697C491.029 399.605 481.578 426.938 481.176 428.079C480.236 430.758 477.658 432.394 474.96 432.265Z" fill="#E91A3D"/>
<path d="M457.619 625.931C466.833 625.931 469.431 619.729 469.431 619.729C469.431 619.729 473.868 626.953 481.395 624.664C488.837 622.4 488.037 613.233 488.037 613.233C488.037 613.233 492.522 619.264 500.611 615.303C507.119 612.115 503.688 602.307 503.688 602.307C503.688 602.307 509.825 608.706 518.538 603.558C522.137 601.43 521.706 594.69 522.302 594.231C542.223 578.928 582.593 546.767 563.001 467.339C548.111 406.971 489.849 388.039 439.12 390.57C438.346 390.61 437.95 386.453 432.468 386.453C427.312 386.453 425.812 389.959 425.812 389.959C425.812 389.959 422.448 385.624 416.732 388.351C411.022 391.074 412.441 397.072 412.441 397.072C410.419 395.994 407.194 390.877 399.815 393.74C392.472 396.591 393.837 404.456 393.837 404.456C393.837 404.456 389.099 400.592 382.944 404.156C381.335 405.087 380.91 411.867 380.198 413.006C371.384 402.761 366.414 414.563 368.468 418.219C371.233 423.14 364.346 426.258 363.038 427.559C331.889 458.558 322.816 523.647 345.799 564.874C375.14 617.508 422.095 622.219 447.878 620.915C447.874 620.911 450.307 625.931 457.619 625.931Z" fill="#E91A3D"/>
<path d="M486.573 592.43C456.872 577.203 438.376 544.99 427.536 514.535C416.01 482.146 413.055 447.312 418.728 413.431C419.153 410.888 415.264 409.796 414.835 412.358C408.854 448.074 412.074 484.841 424.81 518.801C436.18 549.116 454.82 580.683 484.535 595.916C486.844 597.1 488.889 593.618 486.573 592.43Z" fill="#37474F"/>
<path d="M451.406 602.815C401.843 558.13 376.788 493.047 383.372 426.626C383.628 424.043 379.588 424.061 379.333 426.626C372.654 494.003 398.28 560.347 448.549 605.671C450.474 607.406 453.339 604.559 451.406 602.815Z" fill="#37474F"/>
<path d="M522.569 594.984C554.92 576.13 565.585 538.579 566 503.008C566.011 502.145 565.557 501.596 564.965 501.305C566.039 499.531 566.961 497.613 567.672 495.532C568.515 493.069 564.617 492.011 563.779 494.458C559.922 505.729 549.219 512.222 537.409 510.349C537.287 510.329 537.188 510.363 537.073 510.361C537.646 507.466 538.08 504.536 538.309 501.571C538.469 501.601 538.611 501.657 538.797 501.65C551.002 501.13 561.409 493.537 565.759 482.151C566.249 480.872 565.399 480.011 564.357 479.811C564.315 479.645 564.297 479.48 564.204 479.309C564.179 479.261 564.15 479.214 564.125 479.166C564.577 478.722 564.868 478.107 564.739 477.332C557.973 437.229 526.787 415.898 490.56 404.707C490.786 404.578 491.003 404.433 491.23 404.306C493.492 403.026 491.459 399.537 489.193 400.82C487.649 401.694 486.144 402.612 484.631 403.523C484.556 403.565 484.482 403.601 484.416 403.653C468.284 413.407 453.893 425.36 441.333 439.287C440.915 439.504 440.633 439.859 440.449 440.257C437.829 443.2 435.264 446.197 432.81 449.313C432.715 445.616 432.702 441.91 432.865 438.185C433.466 438.171 434.067 437.909 434.492 437.281C446.202 419.98 462.011 406.656 480.959 397.892C483.314 396.803 481.266 393.321 478.921 394.406C460.488 402.933 445.086 415.789 433.251 432.152C434.096 421.876 435.947 411.535 438.909 401.222C439.627 398.719 435.732 397.652 435.016 400.149C413.939 473.556 447.137 548.287 507.652 591.913C509.762 593.434 511.78 589.934 509.69 588.427C509.44 588.246 509.204 588.052 508.952 587.869C539.8 574.716 558.714 544.747 556.989 510.952C556.969 510.579 556.852 510.274 556.694 510.006C558.609 508.733 560.358 507.209 561.917 505.464C561.059 539.614 550.476 575.261 518.559 592.633C518.287 592.781 518.084 592.964 517.928 593.165C516.753 592.948 515.579 592.731 514.406 592.514C511.866 592.044 510.777 595.935 513.333 596.407L520.143 597.666C521.887 597.991 522.913 596.256 522.569 594.984ZM485.873 407.524C519.996 417.355 549.87 435.618 559.181 470.734C540.814 441.705 509.532 415.111 474.423 415.018C478.124 412.371 481.967 409.906 485.873 407.524ZM468.817 419.248C504.267 416.474 536.033 442.523 554.816 471.417C530.956 443.314 496.281 427.211 458.898 427.389C462.099 424.551 465.428 421.865 468.817 419.248ZM447.153 438.727C449.585 436.153 452.111 433.679 454.68 431.253C454.949 431.391 455.254 431.485 455.633 431.472C497.613 430.211 536.535 450.027 559.992 484.871C559.807 485.183 559.642 485.509 559.445 485.812C531.137 454.057 489.534 436.669 447.153 438.727ZM433.473 460.553C435.377 460.49 437.28 460.425 439.184 460.361C441.774 460.273 441.787 456.237 439.184 456.324C437.176 456.391 435.171 456.459 433.163 456.525C433.109 455.754 433.029 454.986 432.986 454.213C433.594 454.206 434.207 453.963 434.659 453.373C437.41 449.787 440.318 446.359 443.297 443.006C486.212 439.732 528.414 456.803 556.951 489.065C555.557 490.606 553.994 491.977 552.283 493.139C552.179 492.981 552.087 492.822 551.915 492.678C522.307 467.975 485.037 455.058 446.48 456.342C443.889 456.428 443.877 460.467 446.48 460.379C483.77 459.136 519.908 471.392 548.643 495.2C546.503 496.196 544.217 496.903 541.838 497.287C541.738 496.819 541.465 496.374 540.957 496.045C509.229 475.468 472.091 465.691 434.345 467.984C433.99 465.519 433.708 463.039 433.473 460.553ZM526.144 529.017C524.738 531.554 523.157 534.008 521.401 536.36C507.404 529.613 495.347 519.984 485.844 508.248C485.718 507.679 485.392 507.186 484.814 506.983C477.023 497.041 471.04 485.638 467.281 473.183C469.339 473.45 471.393 473.741 473.437 474.081C473.449 474.112 473.444 474.141 473.458 474.171C484.534 497.94 502.849 516.983 526.144 529.017ZM516.089 518.28C522.119 517.895 527.834 515.763 532.658 512.13C531.562 516.712 530.01 521.17 527.983 525.424C523.837 523.271 519.882 520.871 516.089 518.28ZM514.607 543.064C501.608 548.976 487.32 547.797 475.394 540.302C476.72 538.05 478.307 535.998 480.157 534.206C489.52 542.069 501.767 543.238 512.569 537.234C512.871 537.067 513.086 536.857 513.246 536.627C515.068 537.659 516.927 538.644 518.823 539.571C517.822 540.745 516.781 541.844 515.719 542.91C515.366 542.869 514.996 542.887 514.607 543.064ZM483.279 531.572C486.999 528.876 491.427 527.022 496.36 526.217C496.841 526.138 497.153 525.915 497.392 525.645C501.174 528.802 505.207 531.681 509.426 534.311C500.625 538.705 490.899 537.734 483.279 531.572ZM485.437 485.925C485.205 486.012 485.035 486.144 484.864 486.279C482.509 482.646 480.297 478.898 478.336 474.968C482.358 475.759 486.332 476.749 490.282 477.833C490.569 481.275 488.79 484.68 485.437 485.925ZM494.347 478.963C499.972 480.658 505.515 482.633 510.96 484.896C509.512 492.595 504.058 498.796 496.412 500.9C496.308 500.929 496.246 500.991 496.154 501.031C492.873 497.429 489.846 493.591 487.041 489.571C491.321 487.743 494.295 483.62 494.347 478.963ZM499.204 504.251C507.074 501.444 513.068 494.723 514.781 486.507C517.235 487.597 519.661 488.765 522.07 489.973C522.049 490.037 522.007 490.077 521.991 490.147C519.846 499.682 512.75 506.354 503.248 508.13C501.872 506.865 500.515 505.579 499.204 504.251ZM435.002 471.993C440.49 471.679 445.954 471.663 451.392 471.871C445.38 475.508 440.854 481.126 438.525 487.78C437.097 482.583 435.906 477.32 435.002 471.993ZM440.086 493.134C440.739 493.019 441.328 492.604 441.534 491.752C443.559 483.423 449.16 476.887 457.009 473.479C457.649 473.201 457.949 472.743 458.026 472.246C459.781 472.381 461.535 472.513 463.283 472.7C463.171 473.037 463.125 473.407 463.254 473.843C465.132 480.161 467.576 486.229 470.516 492C460.03 492.176 450.312 497.834 445.011 506.922C443.174 502.394 441.534 497.795 440.086 493.134ZM446.97 511.551C447.144 511.395 447.307 511.208 447.433 510.95C452.178 501.203 461.964 495.502 472.706 496.081C474.945 500.042 477.419 503.853 480.126 507.482C468.483 509.891 459.356 518.189 456.239 529.816C452.786 523.899 449.711 517.79 446.97 511.551ZM458.955 534.322C459.244 534.084 459.485 533.766 459.578 533.278C461.849 521.334 470.895 512.595 482.932 511.065C484.242 512.674 485.609 514.235 487.01 515.767C476.027 520.718 464.782 527.351 462.617 539.902C461.374 538.054 460.131 536.208 458.955 534.322ZM465.27 543.739C465.835 543.434 466.288 542.912 466.354 542.108C467.396 529.439 479.599 523.398 489.956 518.842C491.235 520.132 492.559 521.378 493.904 522.604C480.997 525.246 471.113 534.866 468.125 547.634C467.161 546.344 466.201 545.05 465.27 543.739ZM493.741 556.428C485.713 557.719 478.038 555.583 471.612 550.689C472.028 548.305 472.681 546.037 473.566 543.918C484.061 550.468 496.19 552.35 507.881 549.559C503.963 552.373 499.778 554.75 495.41 556.876C494.981 556.525 494.419 556.32 493.741 556.428ZM476.664 558.247C479.92 559.614 483.35 560.419 486.881 560.662C484.909 561.467 482.918 562.253 480.903 563.019C479.45 561.456 478.051 559.858 476.664 558.247ZM483.901 566.173C499.451 560.141 513.778 552.999 524.18 539.327C529.942 531.755 533.907 523.215 536.198 514.192C536.25 514.204 536.279 514.235 536.334 514.244C539.865 514.803 543.311 514.75 546.565 514.141C541.576 542.878 521.885 565.525 493.782 574.002C493.328 574.138 493.031 574.4 492.799 574.7C489.748 571.933 486.759 569.11 483.901 566.173ZM505.653 584.899C505.515 584.952 505.427 585.046 505.312 585.117C502.112 582.667 498.963 580.155 495.935 577.529C525.323 568.232 546.174 544.053 550.792 513.427C550.815 513.271 550.778 513.14 550.772 512.995C551.529 512.726 552.258 512.399 552.983 512.066C554.177 544.29 535.81 573.049 505.653 584.899ZM510.485 514.15C510.47 514.149 510.459 514.156 510.445 514.154C509.277 513.246 508.106 512.346 506.975 511.397C516.279 508.72 523.337 501.415 525.721 491.84C528.713 493.426 531.673 495.093 534.587 496.863C534.538 499.82 534.286 502.751 533.877 505.652C527.741 512.175 519.401 515.186 510.485 514.15Z" fill="#37474F"/>
<path d="M428.609 602.539C428.824 602.43 428.966 602.283 429.107 602.139C430.995 603.106 433.287 600.607 431.492 599.009C387.017 559.438 364.884 501.413 371.461 442.235C371.748 439.657 367.708 439.676 367.423 442.235C367.261 443.682 367.127 445.128 367.003 446.573C357.468 447.254 348.871 451.341 342.461 458.47C340.728 460.397 343.575 463.262 345.315 461.325C350.952 455.055 358.318 451.323 366.712 450.643C366.491 454.204 366.366 457.76 366.343 461.307C354.961 463.643 344.77 468.825 336.101 476.601C334.162 478.339 337.025 481.186 338.955 479.455C346.863 472.361 356.054 467.731 366.332 465.44C366.366 467.727 366.43 470.013 366.547 472.29C354.115 474.304 343.069 480.237 334.481 489.483C332.714 491.385 335.563 494.248 337.335 492.338C345.311 483.751 355.345 478.369 366.793 476.337C366.884 477.591 366.979 478.843 367.096 480.092C354.208 483.685 342.717 490.195 332.996 499.397C331.105 501.187 333.963 504.038 335.852 502.251C344.933 493.656 355.553 487.628 367.539 484.18C367.844 486.823 368.183 489.462 368.599 492.083C368.244 492.038 367.873 492.05 367.482 492.219C353.271 498.383 341.639 508.591 333.561 521.793C332.201 524.014 335.692 526.045 337.047 523.831C344.728 511.277 355.747 501.769 369.2 495.857C369.635 498.283 370.115 500.698 370.645 503.098C370.255 503.141 369.861 503.27 369.502 503.606C354.366 517.755 346.198 536.893 346.411 557.607C346.438 560.203 350.475 560.21 350.448 557.607C350.249 538.235 357.701 520.571 371.612 507.194C372.483 510.756 373.49 514.278 374.568 517.778C362.713 531.483 355.762 547.706 353.975 565.759C352.249 565.664 351.065 568.356 352.893 569.575C367.747 579.477 385.544 581.917 402.519 576.404C403.312 576.146 403.708 575.559 403.841 574.919C405.608 577.264 407.438 579.569 409.318 581.837C393.028 591.449 374.304 590.699 358.637 579.696C356.506 578.2 354.486 581.698 356.599 583.182C373.545 595.082 394.431 595.674 412.009 584.935C414.162 587.418 416.393 589.843 418.679 592.226C405.784 599.421 391.38 601.108 377.044 597.039C374.539 596.329 373.472 600.223 375.971 600.932C391.633 605.377 407.59 603.359 421.603 595.204C423.013 596.608 424.454 597.99 425.912 599.357C414.822 604.898 403.008 607.123 390.628 606.106C388.037 605.892 388.052 609.932 390.628 610.144C403.952 611.242 416.727 608.63 428.609 602.539ZM363.517 543.309C366.558 535.785 370.732 528.741 376.021 522.299C378.836 530.661 382.262 538.804 386.236 546.689C378.416 547.838 370.697 546.689 363.535 543.312C363.528 543.309 363.522 543.31 363.517 543.309ZM362.127 547.067C370.323 550.79 378.866 551.941 387.792 550.52C387.933 550.497 388.021 550.431 388.141 550.388C389.787 553.479 391.555 556.509 393.378 559.508C381.81 561.631 370.458 560.427 359.552 556.173C360.238 553.075 361.099 550.038 362.127 547.067ZM357.141 567.476C357.588 567.154 357.925 566.666 357.99 565.987C358.18 564.024 358.46 562.094 358.784 560.178C370.35 564.623 382.402 565.651 394.616 563.378C395 563.306 395.276 563.141 395.504 562.942C397.565 566.175 399.741 569.34 402.005 572.45C401.824 572.458 401.65 572.449 401.448 572.513C386.224 577.457 370.686 575.658 357.141 567.476Z" fill="#37474F"/>
<path d="M406.525 516.192C390.433 481.672 393.425 443.382 396.74 406.51C396.973 403.923 392.933 403.94 392.704 406.51C389.313 444.244 386.597 482.954 403.039 518.23C404.135 520.584 407.617 518.535 406.525 516.192Z" fill="#37474F"/>
<path d="M427.584 405.727C428.155 400.619 428.723 395.512 429.292 390.403C429.579 387.825 425.539 387.844 425.256 390.403C424.685 395.512 424.116 400.619 423.546 405.727C423.259 408.305 427.299 408.285 427.584 405.727Z" fill="#37474F"/>
<path d="M488.073 612.844C456.457 598.745 431.662 573.175 418.857 540.969C417.908 538.583 414.002 539.623 414.964 542.042C428.146 575.189 453.422 601.784 486.035 616.329C488.387 617.381 490.444 613.902 488.073 612.844Z" fill="#37474F"/>
<path d="M506.82 600.071C475.356 575.962 450.529 544.662 434.01 508.649C432.928 506.29 429.448 508.339 430.524 510.687C447.361 547.387 472.746 579.01 504.783 603.559C506.843 605.136 508.856 601.632 506.82 600.071Z" fill="#37474F"/>
<path d="M431.497 501.848C431.497 499.25 427.461 499.247 427.461 501.848C427.459 504.446 431.497 504.451 431.497 501.848Z" fill="#37474F"/>
<path d="M415.566 505.691C404.12 470.699 402.683 433.827 411.458 398.068C412.077 395.545 408.184 394.469 407.565 396.995C398.629 433.413 400.012 471.119 411.673 506.766C412.479 509.224 416.379 508.171 415.566 505.691Z" fill="#37474F"/>
<path d="M410.468 526.069C410.468 523.472 406.43 523.466 406.43 526.069C406.43 528.667 410.468 528.673 410.468 526.069Z" fill="#37474F"/>
<path d="M445.367 617.555C446.684 618.239 448.039 618.868 449.467 619.389C451.912 620.28 452.965 616.38 450.539 615.496C444.919 613.447 440.127 609.767 436.697 604.864C435.219 602.751 431.717 604.766 433.211 606.902C433.513 607.333 433.837 607.735 434.153 608.147C425.823 611.933 417.008 613.321 407.828 612.378C405.246 612.112 405.264 616.15 407.828 616.414C417.966 617.456 427.74 615.664 436.889 611.314C438.191 612.643 439.623 613.811 441.117 614.898C437.877 615.993 434.524 616.671 431.096 616.927C428.522 617.121 428.5 621.159 431.096 620.965C436.071 620.594 440.769 619.439 445.367 617.555Z" fill="#37474F"/>
<path d="M372.322 434.904C372.831 431.437 373.339 427.971 373.846 424.503C373.958 423.747 373.671 423.141 373.231 422.7C377.088 421.311 380.136 418.312 381.509 414.246C382.341 411.78 378.443 410.721 377.616 413.174C376.473 416.561 373.364 419.11 369.783 419.462C367.221 419.713 367.194 423.753 369.783 423.498C369.839 423.493 369.891 423.477 369.946 423.471C369.44 426.925 368.934 430.378 368.427 433.832C368.055 436.372 371.945 437.47 372.322 434.904Z" fill="#37474F"/>
<path d="M450.762 131.159C455.575 131.159 459.477 127.257 459.477 122.444C459.477 117.63 455.575 113.729 450.762 113.729C445.949 113.729 442.047 117.63 442.047 122.444C442.047 127.257 445.949 131.159 450.762 131.159Z" fill="#C7C7C7"/>
<path d="M458.556 120.715C458.556 125.529 454.654 129.431 449.84 129.431C445.027 129.431 441.125 125.529 441.125 120.715C441.125 115.902 445.027 112 449.84 112C454.654 112 458.556 115.902 458.556 120.715Z" fill="#DBDBDB"/>
<path d="M346.956 573.482C346.956 573.482 379.336 518.643 387.981 508.683C393.955 501.799 416.049 489.615 430.277 477.907C433.145 475.548 437.873 465.268 444.216 464.493C452.759 463.449 465.572 481.199 460.649 497.022C455.726 512.845 431.986 528.252 430.088 531.411C428.19 534.57 441.868 569.826 437.02 579.415C432.173 589.006 391.63 612.807 384.93 612.507C378.229 612.208 343.408 583.224 346.956 573.482Z" fill="white"/>
<path d="M441.83 499.865C446.536 503.728 452.237 504.628 457.069 504.436C458.631 501.995 459.876 499.519 460.651 497.011C465.565 481.202 452.763 463.454 444.222 464.495C437.86 465.266 433.137 475.551 430.273 477.918C430.277 477.918 431.398 491.301 441.83 499.865Z" fill="#EBEBEB"/>
<path d="M454.948 469.924C455.05 469.838 455.199 469.974 455.12 470.083C453.105 472.938 451.193 475.889 449.458 478.924C447.879 481.689 446.475 484.543 446.851 487.817C446.875 488.014 446.589 488.066 446.546 487.871C445.861 484.756 446.044 481.292 447.373 478.368C448.988 474.818 452.048 472.38 454.948 469.924Z" fill="#263238"/>
<path d="M447.506 464.341C447.605 464.253 447.758 464.389 447.68 464.5C446.148 466.698 444.512 469.71 442.695 473.271C441.396 475.817 438.996 479.683 440.849 482.458C441.168 482.937 440.879 483.057 440.47 482.648C438.005 480.191 439.207 476.161 440.386 473.388C441.941 469.733 444.575 466.94 447.506 464.341Z" fill="#263238"/>
<path d="M362.854 547.059C361.992 549.446 360.922 551.694 359.783 553.899C358.658 556.111 357.413 558.248 356.156 560.374C354.853 562.473 353.545 564.566 352.126 566.593C350.723 568.635 349.263 570.625 347.672 572.598C348.26 570.122 349.238 567.795 350.307 565.544C351.368 563.284 352.587 561.115 353.856 558.98C355.167 556.87 356.514 554.785 358.009 552.792C359.485 550.794 361.052 548.847 362.854 547.059Z" fill="#263238"/>
<path d="M435.543 581.568C431.654 586.45 426.88 590.519 422.018 594.374C417.131 598.224 411.937 601.672 406.588 604.856C401.199 607.974 395.608 610.753 389.844 613.103C384.084 615.461 378.099 617.285 372.016 618.509C377.645 615.862 383.23 613.351 388.684 610.556C394.116 607.73 399.519 604.878 404.779 601.76C410.068 598.694 415.247 595.44 420.393 592.108C425.504 588.721 430.645 585.359 435.543 581.568Z" fill="#263238"/>
<path d="M399.229 606.92C398.357 608.535 397.27 610 396.103 611.391C394.943 612.788 393.658 614.074 392.322 615.303C389.615 617.709 386.583 619.858 383.133 621.114C384.471 619.855 385.827 618.71 387.157 617.522C388.474 616.326 389.821 615.178 391.123 613.97C393.778 611.611 396.373 609.198 399.229 606.92Z" fill="#263238"/>
<path d="M522.501 612.625C522.501 612.625 462.761 527.097 480.457 491.686C493.49 465.603 556.682 428.675 556.682 428.675C556.682 428.675 526.862 390.036 526.467 382.203C526.073 374.371 545.792 374.014 556.386 376.579C566.98 379.144 610.278 431.727 610.802 438.345C611.325 444.961 596.885 468.844 598.868 479.101C600.848 489.359 615.984 501.224 617.028 502.975C618.073 504.726 628.031 547.82 619.133 562.041C610.235 576.266 535.319 619.323 522.501 612.625Z" fill="white"/>
<path d="M542.668 409.839C559.272 411.746 568.362 393.467 570.861 387.482C564.83 381.61 559.478 377.328 556.376 376.578C545.799 374.02 526.069 374.368 526.467 382.204C526.713 387.064 535.797 400.388 542.668 409.839Z" fill="#EBEBEB"/>
<path d="M539.381 374.732C539.396 374.592 539.609 374.588 539.629 374.728C540.156 378.357 540.833 381.983 541.704 385.546C542.499 388.79 543.493 391.977 546.145 394.198C546.304 394.333 546.125 394.577 545.951 394.459C543.181 392.582 540.818 389.814 539.717 386.628C538.38 382.76 538.949 378.693 539.381 374.732Z" fill="#263238"/>
<path d="M529.684 375.856C529.696 375.718 529.91 375.713 529.931 375.853C530.353 378.633 531.282 382.106 532.472 386.129C533.322 389.004 534.287 393.681 537.703 394.455C538.291 394.587 538.159 394.889 537.552 394.872C533.9 394.781 531.905 390.847 530.8 387.885C529.343 383.981 529.33 379.952 529.684 375.856Z" fill="#263238"/>
<path d="M483.797 540.967C487.794 548.389 491.667 555.834 495.539 563.273C499.441 570.697 503.281 578.138 507.255 585.506C511.2 592.889 515.24 600.214 519.361 607.499C523.547 614.749 527.836 621.925 532.316 629.07C526.645 622.825 521.639 615.992 516.975 608.963C512.33 601.914 508.12 594.602 504.094 587.196C500.156 579.744 496.428 572.186 493.025 564.483C489.615 556.786 486.432 548.981 483.797 540.967Z" fill="#263238"/>
<path d="M600.273 483.193C604.931 488.67 609.627 494.081 614.737 498.923C615.384 499.515 616.036 500.102 616.696 500.667C617.385 501.263 617.95 501.648 618.838 502.621C620.291 504.386 620.854 506.261 621.394 508.083C622.388 511.759 622.679 515.408 622.946 519.045C623.301 526.319 623.009 533.533 622.34 540.705C621.672 547.872 620.684 555.005 619.137 562.045C619.198 554.844 619.405 547.691 619.545 540.553C619.641 533.42 619.774 526.287 619.367 519.246C619.182 515.742 618.893 512.206 618.115 508.93C617.745 507.319 617.23 505.66 616.419 504.617C616.141 504.224 615.3 503.489 614.667 502.875C614.015 502.224 613.382 501.56 612.758 500.891C607.839 495.486 603.72 489.524 600.273 483.193Z" fill="#263238"/>
<path d="M513.719 600.787C515.452 604.101 516.724 607.531 517.953 610.979C519.138 614.447 520.247 617.902 521.126 621.529C518.945 618.476 517.499 615.033 516.259 611.567C515.079 608.074 514.095 604.511 513.719 600.787Z" fill="#263238"/>
<path d="M621.18 535.422C622.986 537.684 624.228 540.237 625.241 542.88C625.722 544.211 626.145 545.572 626.415 546.979C626.687 548.375 626.87 549.84 626.621 551.283C626.126 549.926 625.586 548.665 625.073 547.373C624.543 546.093 624.063 544.797 623.562 543.502C622.622 540.888 621.696 538.265 621.18 535.422Z" fill="#263238"/>
<path d="M36.6016 391L22 377L36.6016 343.4L188.602 165L229.5 151L244.602 165V335L272.5 321L287.402 335V391H244.602V445H188.602L174 431L188.602 391H36.6016ZM111.402 335H188.602V243L111.402 335Z" fill="#333333"/>
<path d="M21.6 377V329.4L173.6 151H229.6V321H272.4V377H229.6V431H173.6V377H21.6ZM96.4 321H173.6V229L96.4 321Z" fill="#E91A3D"/>
<path d="M194.637 191.159C199.45 191.159 203.352 187.257 203.352 182.444C203.352 177.63 199.45 173.729 194.637 173.729C189.824 173.729 185.922 177.63 185.922 182.444C185.922 187.257 189.824 191.159 194.637 191.159Z" fill="#C7C7C7"/>
<path d="M202.43 180.715C202.43 185.529 198.529 189.431 193.715 189.431C188.902 189.431 185 185.529 185 180.715C185 175.902 188.902 172 193.715 172C198.529 172 202.43 175.902 202.43 180.715Z" fill="#DBDBDB"/>
<path d="M593.602 391L579 377L593.602 343.4L745.602 165L786.5 151L801.602 165V335L829.5 321L844.402 335V391H801.602V445H745.602L731 431L745.602 391H593.602ZM668.402 335H745.602V243L668.402 335Z" fill="#333333"/>
<path d="M578.6 377V329.4L730.6 151H786.6V321H829.4V377H786.6V431H730.6V377H578.6ZM653.4 321H730.6V229L653.4 321Z" fill="#E91A3D"/>
<path d="M751.637 191.159C756.45 191.159 760.352 187.257 760.352 182.444C760.352 177.63 756.45 173.729 751.637 173.729C746.824 173.729 742.922 177.63 742.922 182.444C742.922 187.257 746.824 191.159 751.637 191.159Z" fill="#C7C7C7"/>
<path d="M759.43 180.715C759.43 185.529 755.529 189.431 750.715 189.431C745.902 189.431 742 185.529 742 180.715C742 175.902 745.902 172 750.715 172C755.529 172 759.43 175.902 759.43 180.715Z" fill="#DBDBDB"/>
</svg>
