<svg width="64" height="64" viewBox="0 0 64 64" fill="none" xmlns="http://www.w3.org/2000/svg">
<g clip-path="url(#clip0_1952_2576)">
<path fill-rule="evenodd" clip-rule="evenodd" d="M8.11909 0.347656C6.05797 0.347656 4.08128 1.16643 2.62386 2.62386C1.16643 4.08128 0.347656 6.05797 0.347656 8.11909V14.6334C0.347656 15.0836 0.436339 15.5295 0.608641 15.9454C0.780943 16.3614 1.03349 16.7394 1.35186 17.0577C1.67023 17.3761 2.0482 17.6287 2.46417 17.801C2.88014 17.9733 3.32598 18.0619 3.77623 18.0619C4.22647 18.0619 4.67231 17.9733 5.08829 17.801C5.50426 17.6287 5.88222 17.3761 6.20059 17.0577C6.51897 16.7394 6.77151 16.3614 6.94382 15.9454C7.11612 15.5295 7.2048 15.0836 7.2048 14.6334V8.11909C7.2048 7.8766 7.30113 7.64405 7.47259 7.47259C7.64405 7.30113 7.8766 7.2048 8.11909 7.2048H14.6334C15.0836 7.2048 15.5295 7.11612 15.9454 6.94382C16.3614 6.77151 16.7394 6.51897 17.0577 6.20059C17.3761 5.88222 17.6287 5.50426 17.801 5.08829C17.9733 4.67231 18.0619 4.22647 18.0619 3.77623C18.0619 3.32598 17.9733 2.88014 17.801 2.46417C17.6287 2.0482 17.3761 1.67023 17.0577 1.35186C16.7394 1.03349 16.3614 0.780943 15.9454 0.608641C15.5295 0.436339 15.0836 0.347656 14.6334 0.347656H8.11909ZM18.2677 12.5534C15.1134 12.5534 12.5534 15.1134 12.5534 18.2677V27.7442C12.5534 30.8985 15.1134 33.4585 18.2677 33.4585H27.7442C30.8985 33.4585 33.4585 30.8985 33.4585 27.7442V18.2677C33.4585 15.1134 30.8985 12.5534 27.7442 12.5534H18.2677ZM19.4105 26.6014V19.4105H26.6014V26.6014H19.4105ZM45.9385 3.77623C45.9385 2.86691 46.2997 1.99484 46.9427 1.35186C47.5857 0.70888 48.4578 0.347656 49.3671 0.347656H55.8814C57.9425 0.347656 59.9192 1.16643 61.3766 2.62386C62.834 4.08128 63.6528 6.05797 63.6528 8.11909V14.6334C63.6528 15.5427 63.2916 16.4148 62.6486 17.0577C62.0056 17.7007 61.1335 18.0619 60.2242 18.0619C59.3149 18.0619 58.4428 17.7007 57.7999 17.0577C57.1569 16.4148 56.7957 15.5427 56.7957 14.6334V8.11909C56.7957 7.8766 56.6993 7.64405 56.5279 7.47259C56.3564 7.30113 56.1239 7.2048 55.8814 7.2048H49.3671C48.4578 7.2048 47.5857 6.84358 46.9427 6.20059C46.2997 5.55761 45.9385 4.68554 45.9385 3.77623ZM7.2048 49.3717C7.2048 48.4623 6.84358 47.5903 6.20059 46.9473C5.55761 46.3043 4.68554 45.9431 3.77623 45.9431C2.86691 45.9431 1.99484 46.3043 1.35186 46.9473C0.70888 47.5903 0.347656 48.4623 0.347656 49.3717V55.8859C0.347656 57.9471 1.16643 59.9237 2.62386 61.3812C4.08128 62.8386 6.05797 63.6574 8.11909 63.6574H14.6334C15.5427 63.6574 16.4148 63.2961 17.0577 62.6532C17.7007 62.0102 18.0619 61.1381 18.0619 60.2288C18.0619 59.3195 17.7007 58.4474 17.0577 57.8044C16.4148 57.1615 15.5427 56.8002 14.6334 56.8002H8.11909C7.8766 56.8002 7.64405 56.7039 7.47259 56.5324C7.30113 56.361 7.2048 56.1284 7.2048 55.8859V49.3717ZM60.2242 45.9431C61.1335 45.9431 62.0056 46.3043 62.6486 46.9473C63.2916 47.5903 63.6528 48.4623 63.6528 49.3717V55.8859C63.6528 57.9471 62.834 59.9237 61.3766 61.3812C59.9192 62.8386 57.9425 63.6574 55.8814 63.6574H49.3671C48.4578 63.6574 47.5857 63.2961 46.9427 62.6532C46.2997 62.0102 45.9385 61.1381 45.9385 60.2288C45.9385 59.3195 46.2997 58.4474 46.9427 57.8044C47.5857 57.1615 48.4578 56.8002 49.3671 56.8002H55.8814C56.1239 56.8002 56.3564 56.7039 56.5279 56.5324C56.6993 56.361 56.7957 56.1284 56.7957 55.8859V49.3717C56.7957 48.4623 57.1569 47.5903 57.7999 46.9473C58.4428 46.3043 59.3149 45.9431 60.2242 45.9431ZM19.4105 42.0117C19.4105 41.1023 19.0493 40.2303 18.4063 39.5873C17.7633 38.9443 16.8913 38.5831 15.9819 38.5831C15.0726 38.5831 14.2006 38.9443 13.5576 39.5873C12.9146 40.2303 12.5534 41.1023 12.5534 42.0117V48.0185C12.5534 49.9111 14.0894 51.4471 15.9819 51.4471H21.9888C22.8981 51.4471 23.7702 51.0859 24.4132 50.4429C25.0561 49.7999 25.4174 48.9278 25.4174 48.0185C25.4174 47.1092 25.0561 46.2371 24.4132 45.5941C23.7702 44.9512 22.8981 44.5899 21.9888 44.5899H19.4105V42.0117ZM26.0848 42.0117C26.0848 41.1023 26.446 40.2303 27.089 39.5873C27.732 38.9443 28.6041 38.5831 29.5134 38.5831H32.0002C32.9095 38.5831 33.7816 38.9443 34.4246 39.5873C35.0676 40.2303 35.4288 41.1023 35.4288 42.0117V48.0185C35.4288 48.9278 35.0676 49.7999 34.4246 50.4429C33.7816 51.0859 32.9095 51.4471 32.0002 51.4471C31.0909 51.4471 30.2188 51.0859 29.5759 50.4429C28.9329 49.7999 28.5717 48.9278 28.5717 48.0185V45.3077C27.8561 45.1033 27.2264 44.6716 26.7778 44.0778C26.3292 43.484 26.0859 42.7604 26.0848 42.0162V42.0117ZM45.4402 15.9819C45.4402 15.0726 45.079 14.2006 44.436 13.5576C43.793 12.9146 42.921 12.5534 42.0117 12.5534C41.1023 12.5534 40.2303 12.9146 39.5873 13.5576C38.9443 14.2006 38.5831 15.0726 38.5831 15.9819V21.9888C38.5831 23.8814 40.1191 25.4174 42.0117 25.4174H48.0185C48.9278 25.4174 49.7999 25.0561 50.4429 24.4132C51.0859 23.7702 51.4471 22.8981 51.4471 21.9888C51.4471 21.0795 51.0859 20.2074 50.4429 19.5644C49.7999 18.9215 48.9278 18.5602 48.0185 18.5602H45.4402V15.9819ZM38.5831 32.0002C38.5831 31.0909 38.9443 30.2188 39.5873 29.5759C40.2303 28.9329 41.1023 28.5717 42.0117 28.5717H48.0185C48.9278 28.5717 49.7999 28.9329 50.4429 29.5759C51.0859 30.2188 51.4471 31.0909 51.4471 32.0002V34.9214C51.4491 35.788 51.1229 36.6233 50.534 37.2592C49.945 37.895 49.1372 38.2842 48.2729 38.3485C47.4086 38.4128 46.552 38.1474 45.8755 37.6057C45.199 37.064 44.7527 36.2862 44.6265 35.4288H42.0117C41.1023 35.4288 40.2303 35.0676 39.5873 34.4246C38.9443 33.7816 38.5831 32.9095 38.5831 32.0002ZM45.4402 42.0117C45.4402 41.1023 45.079 40.2303 44.436 39.5873C43.793 38.9443 42.921 38.5831 42.0117 38.5831C41.1023 38.5831 40.2303 38.9443 39.5873 39.5873C38.9443 40.2303 38.5831 41.1023 38.5831 42.0117V48.0185C38.5831 49.9111 40.1191 51.4471 42.0117 51.4471H48.0185C48.9278 51.4471 49.7999 51.0859 50.4429 50.4429C51.0859 49.7999 51.4471 48.9278 51.4471 48.0185C51.4471 47.1092 51.0859 46.2371 50.4429 45.5941C49.7999 44.9512 48.9278 44.5899 48.0185 44.5899H45.4402V42.0117Z" fill="black"/>
</g>
<defs>
<clipPath id="clip0_1952_2576">
<rect width="64" height="64" fill="white"/>
</clipPath>
</defs>
</svg>
